<svg width="61" height="61" viewBox="0 0 61 61" fill="none" xmlns="http://www.w3.org/2000/svg">
<path d="M28.5938 43.8438H32.4063L30.5 45.75L28.5938 43.8438Z" stroke="white" stroke-width="2" stroke-linecap="round" stroke-linejoin="round"/>
<path d="M38.125 30.5L43.2083 35.5833" stroke="white" stroke-width="2" stroke-linecap="round" stroke-linejoin="round"/>
<path d="M45.7501 16.5208C45.7501 16.1838 45.6162 15.8605 45.3779 15.6222C45.1395 15.3839 44.8163 15.25 44.4792 15.25" stroke="white" stroke-width="2" stroke-linecap="round" stroke-linejoin="round"/>
<path d="M52.587 24.5779C53.7309 23.4323 54.6185 22.0568 55.1912 20.5426C55.7639 19.0283 56.0086 17.4097 55.9091 15.7938C55.8097 14.178 55.3683 12.6016 54.6142 11.169C53.8601 9.73645 52.8104 8.48028 51.5347 7.48358C50.2589 6.48689 48.7861 5.7724 47.2136 5.38734C45.6411 5.00228 44.0048 4.95543 42.4129 5.2499C40.8209 5.54437 39.3097 6.17344 37.979 7.09551C36.6483 8.01759 35.5285 9.21165 34.6937 10.5987C31.9257 10.0408 29.0742 10.0408 26.3062 10.5987C25.4713 9.21165 24.3516 8.01759 23.0209 7.09551C21.6902 6.17344 20.1789 5.54437 18.587 5.2499C16.995 4.95543 15.3587 5.00228 13.7862 5.38734C12.2137 5.7724 10.7409 6.48689 9.46516 7.48358C8.1894 8.48028 7.13976 9.73645 6.38566 11.169C5.63156 12.6016 5.19018 14.178 5.0907 15.7938C4.99123 17.4097 5.23593 19.0283 5.80862 20.5426C6.38131 22.0568 7.26895 23.4323 8.41283 24.5779C6.32866 28.4667 5.08325 32.7367 5.08325 36.8542C5.08325 49.4863 16.4699 55.9167 30.4999 55.9167C44.5299 55.9167 55.9166 49.4863 55.9166 36.8542C55.9166 32.7367 54.6966 28.4667 52.6124 24.5779" stroke="white" stroke-width="2" stroke-linecap="round" stroke-linejoin="round"/>
<path d="M15.2501 16.5208C15.2484 16.3535 15.2801 16.1875 15.3433 16.0325C15.4066 15.8776 15.5001 15.7368 15.6185 15.6184C15.7368 15.5001 15.8776 15.4065 16.0326 15.3433C16.1875 15.28 16.3535 15.2483 16.5209 15.25" stroke="white" stroke-width="2" stroke-linecap="round" stroke-linejoin="round"/>
<path d="M22.8751 30.5L17.7917 35.5833" stroke="white" stroke-width="2" stroke-linecap="round" stroke-linejoin="round"/>
</svg>
