<svg width="66" height="30" viewBox="0 0 66 30" fill="none" xmlns="http://www.w3.org/2000/svg">
<path d="M8.72 22L5.52 16.44H3.78V22H1.5V8.1H6.3C7.36667 8.1 8.26667 8.28667 9 8.66C9.74667 9.03333 10.3 9.53333 10.66 10.16C11.0333 10.7867 11.22 11.4867 11.22 12.26C11.22 13.1667 10.9533 13.9933 10.42 14.74C9.9 15.4733 9.09333 15.9733 8 16.24L11.44 22H8.72ZM3.78 14.62H6.3C7.15333 14.62 7.79333 14.4067 8.22 13.98C8.66 13.5533 8.88 12.98 8.88 12.26C8.88 11.54 8.66667 10.98 8.24 10.58C7.81333 10.1667 7.16667 9.96 6.3 9.96H3.78V14.62ZM15.2967 9.52C14.8834 9.52 14.5367 9.38 14.2567 9.1C13.9767 8.82 13.8367 8.47333 13.8367 8.06C13.8367 7.64667 13.9767 7.3 14.2567 7.02C14.5367 6.74 14.8834 6.6 15.2967 6.6C15.6967 6.6 16.0367 6.74 16.3167 7.02C16.5967 7.3 16.7367 7.64667 16.7367 8.06C16.7367 8.47333 16.5967 8.82 16.3167 9.1C16.0367 9.38 15.6967 9.52 15.2967 9.52ZM16.4167 10.98V22H14.1367V10.98H16.4167ZM24.0302 12.84H21.9902V22H19.6902V12.84H18.3902V10.98H19.6902V10.2C19.6902 8.93333 20.0235 8.01333 20.6902 7.44C21.3702 6.85333 22.4302 6.56 23.8702 6.56V8.46C23.1768 8.46 22.6902 8.59333 22.4102 8.86C22.1302 9.11333 21.9902 9.56 21.9902 10.2V10.98H24.0302V12.84ZM28.7108 12.84V18.94C28.7108 19.3533 28.8041 19.6533 28.9908 19.84C29.1908 20.0133 29.5241 20.1 29.9908 20.1H31.3908V22H29.5908C28.5641 22 27.7774 21.76 27.2308 21.28C26.6841 20.8 26.4108 20.02 26.4108 18.94V12.84H25.1108V10.98H26.4108V8.24H28.7108V10.98H31.3908V12.84H28.7108Z" fill="white"/>
<path d="M53.25 20.25H54.75L54 21L53.25 20.25Z" stroke="white" stroke-width="2" stroke-linecap="round" stroke-linejoin="round"/>
<path d="M57 15L59 17" stroke="white" stroke-width="2" stroke-linecap="round" stroke-linejoin="round"/>
<path d="M60 9.5C60 9.36739 59.9473 9.24021 59.8536 9.14645C59.7598 9.05268 59.6326 9 59.5 9" stroke="white" stroke-width="2" stroke-linecap="round" stroke-linejoin="round"/>
<path d="M62.69 12.67C63.14 12.2193 63.4892 11.6781 63.7146 11.0823C63.9399 10.4866 64.0362 9.84973 63.997 9.21397C63.9579 8.57822 63.7842 7.95801 63.4875 7.39437C63.1908 6.83073 62.7779 6.3365 62.2759 5.94436C61.774 5.55222 61.1945 5.27111 60.5758 5.11961C59.9571 4.96811 59.3134 4.94968 58.687 5.06554C58.0607 5.18139 57.4661 5.4289 56.9425 5.79168C56.419 6.15446 55.9784 6.62426 55.65 7.17C54.5609 6.95047 53.439 6.95047 52.35 7.17C52.0215 6.62426 51.5809 6.15446 51.0574 5.79168C50.5338 5.4289 49.9392 5.18139 49.3129 5.06554C48.6866 4.94968 48.0428 4.96811 47.4241 5.11961C46.8054 5.27111 46.2259 5.55222 45.724 5.94436C45.222 6.3365 44.8091 6.83073 44.5124 7.39437C44.2157 7.95801 44.042 8.57822 44.0029 9.21397C43.9638 9.84973 44.06 10.4866 44.2853 11.0823C44.5107 11.6781 44.8599 12.2193 45.31 12.67C44.49 14.2 44 15.88 44 17.5C44 22.47 48.48 25 54 25C59.52 25 64 22.47 64 17.5C64 15.88 63.52 14.2 62.7 12.67" stroke="white" stroke-width="2" stroke-linecap="round" stroke-linejoin="round"/>
<path d="M48 9.5C47.9994 9.43415 48.0118 9.36883 48.0367 9.30787C48.0616 9.2469 48.0984 9.19152 48.145 9.14496C48.1915 9.09839 48.2469 9.06159 48.3079 9.0367C48.3689 9.01181 48.4342 8.99933 48.5 9" stroke="white" stroke-width="2" stroke-linecap="round" stroke-linejoin="round"/>
<path d="M51 15L49 17" stroke="white" stroke-width="2" stroke-linecap="round" stroke-linejoin="round"/>
</svg>
