<svg width="48" height="48" viewBox="0 0 48 48" fill="none" xmlns="http://www.w3.org/2000/svg">
<path d="M22.6875 33.1875H25.3125L24 34.5L22.6875 33.1875Z" stroke="white" stroke-width="3" stroke-linecap="round" stroke-linejoin="round"/>
<path d="M29.25 24L32.75 27.5" stroke="white" stroke-width="3" stroke-linecap="round" stroke-linejoin="round"/>
<path d="M34.5 14.375C34.5 14.1429 34.4078 13.9204 34.2437 13.7563C34.0796 13.5922 33.8571 13.5 33.625 13.5" stroke="white" stroke-width="3" stroke-linecap="round" stroke-linejoin="round"/>
<path d="M39.2075 19.9225C39.9951 19.1337 40.6062 18.1867 41.0005 17.1441C41.3949 16.1015 41.5633 14.987 41.4948 13.8745C41.4264 12.7619 41.1225 11.6765 40.6032 10.6902C40.084 9.7038 39.3613 8.83889 38.4829 8.15265C37.6045 7.4664 36.5905 6.97445 35.5078 6.70933C34.4251 6.44421 33.2984 6.41195 32.2023 6.6147C31.1063 6.81745 30.0657 7.25058 29.1495 7.88545C28.2333 8.52032 27.4623 9.34246 26.8875 10.2975C24.9816 9.91333 23.0183 9.91333 21.1125 10.2975C20.5377 9.34246 19.7667 8.52032 18.8505 7.88545C17.9343 7.25058 16.8937 6.81745 15.7976 6.6147C14.7015 6.41195 13.5749 6.44421 12.4922 6.70933C11.4095 6.97445 10.3954 7.4664 9.51704 8.15265C8.63864 8.83889 7.91594 9.7038 7.39673 10.6902C6.87751 11.6765 6.57361 12.7619 6.50511 13.8745C6.43662 14.987 6.60511 16.1015 6.99942 17.1441C7.39373 18.1867 8.00489 19.1337 8.79248 19.9225C7.35748 22.6 6.49998 25.54 6.49998 28.375C6.49998 37.0725 14.34 41.5 24 41.5C33.66 41.5 41.5 37.0725 41.5 28.375C41.5 25.54 40.66 22.6 39.225 19.9225" stroke="white" stroke-width="3" stroke-linecap="round" stroke-linejoin="round"/>
<path d="M13.5 14.375C13.4989 14.2598 13.5207 14.1454 13.5643 14.0388C13.6078 13.9321 13.6722 13.8351 13.7537 13.7537C13.8352 13.6722 13.9321 13.6078 14.0388 13.5642C14.1455 13.5206 14.2598 13.4988 14.375 13.5" stroke="white" stroke-width="4" stroke-linecap="round" stroke-linejoin="round"/>
<path d="M18.75 24L15.25 27.5" stroke="white" stroke-width="4" stroke-linecap="round" stroke-linejoin="round"/>
</svg>
